<?xml version="1.0" encoding="UTF-8"?> <svg xmlns="http://www.w3.org/2000/svg" xmlns:xlink="http://www.w3.org/1999/xlink" width="72px" height="72px" viewBox="0 0 72 72"> <!-- Generator: Sketch 51.2 (57519) - http://www.bohemiancoding.com/sketch --> <title>Artboard</title> <desc>Created with Sketch.</desc> <defs> <polygon id="path-1" points="0 0 38.4035295 0 38.4035295 38.3897362 0 38.3897362"></polygon> </defs> <g id="Artboard" stroke="none" stroke-width="1" fill="none" fill-rule="evenodd"> <g id="Consulting" transform="translate(1.000000, 1.000000)"> <g id="Group-3"> <mask id="mask-2" fill="white"> <use xlink:href="#path-1"></use> </mask> <g id="Clip-2"></g> <path d="M2.25982874,19.1948543 C2.25982874,9.85233465 9.85234843,2.25981496 19.1948681,2.25981496 C28.5373878,2.25981496 36.1299075,9.85233465 36.1299075,19.1948543 C36.1299075,23.8109961 34.2696713,27.9861929 31.2795138,31.045248 C30.3149469,26.9527283 27.3385689,23.6318622 23.4389626,22.2125709 C24.9822697,20.9724134 25.9743957,19.0708386 25.9743957,16.9350118 C25.9743957,13.2007598 22.9291201,10.1554843 19.1948681,10.1554843 C15.4606161,10.1554843 12.4153406,13.2007598 12.4153406,16.9350118 C12.4153406,19.0708386 13.4074665,20.9724134 14.9507736,22.2125709 C11.0511673,23.6318622 8.06100984,26.9527283 7.11022244,31.045248 C4.12006496,27.9861929 2.25982874,23.7972165 2.25982874,19.1948543 Z M14.6751831,16.9350118 C14.6751831,14.4409173 16.7007736,12.4153268 19.1948681,12.4153268 C21.6889626,12.4153268 23.7145531,14.4409173 23.7145531,16.9350118 C23.7145531,19.4291063 21.6889626,21.4546969 19.1948681,21.4546969 C16.7007736,21.4546969 14.6751831,19.4291063 14.6751831,16.9350118 Z M9.09447441,32.7539094 C9.64565551,27.6692638 13.9586476,23.7007598 19.1948681,23.7007598 C24.4173091,23.7007598 28.7303012,27.6692638 29.2952618,32.7539094 C26.4704587,34.8621772 22.9842382,36.1298937 19.1948681,36.1298937 C15.405498,36.1298937 11.9192776,34.8621772 9.09447441,32.7539094 Z M6.84841142,33.8700512 C10.1830571,36.6810748 14.4960492,38.3897362 19.1948681,38.3897362 C23.893687,38.3897362 28.1928996,36.6810748 31.5413248,33.8700512 L31.624002,33.8700512 L31.624002,33.8011535 C35.7578602,30.2735945 38.4035295,25.037374 38.4035295,19.1948543 C38.38975,8.61217717 29.7775453,-2.75590551e-05 19.1948681,-2.75590551e-05 C8.61219094,-2.75590551e-05 -1.37795276e-05,8.61217717 -1.37795276e-05,19.1948543 C-1.37795276e-05,25.0511535 2.63187598,30.287374 6.77951378,33.8011535 L6.77951378,33.8700512 L6.84841142,33.8700512 Z" id="Fill-1" fill="#3386BC" mask="url(#mask-2)"></path> </g> <path d="M55.0492126,53.8227795 C56.5925197,52.582622 57.5846457,50.6810472 57.5846457,48.5452205 C57.5846457,44.8111063 54.5393701,41.7656929 50.8051181,41.7656929 C47.0708661,41.7656929 44.0255906,44.8111063 44.0255906,48.5452205 C44.0255906,50.6810472 45.0177165,52.582622 46.5610236,53.8227795 C42.6614173,55.2422087 39.6712598,58.562937 38.7204724,62.6555945 C35.7165354,59.5964016 33.8700787,55.4213425 33.8700787,50.8052008 C33.8700787,41.4625433 41.4625984,33.8700236 50.8051181,33.8700236 C60.1476378,33.8700236 67.7401575,41.4625433 67.7401575,50.8052008 C67.7401575,55.4213425 65.8799213,59.5964016 62.8897638,62.6555945 C61.9251969,58.562937 58.9350394,55.2422087 55.0492126,53.8227795 M46.2854331,48.5452205 C46.2854331,46.0512638 48.3110236,44.0255354 50.8051181,44.0255354 C53.2992126,44.0255354 55.3248031,46.0512638 55.3248031,48.5452205 C55.3248031,51.0394528 53.2992126,53.0649055 50.8051181,53.0649055 C48.3110236,53.0649055 46.2854331,51.0394528 46.2854331,48.5452205 M40.7047244,64.3780354 C41.2559055,59.293252 45.5688976,55.324748 50.8051181,55.324748 C56.0275591,55.324748 60.3405512,59.293252 60.9055118,64.3780354 C58.0807087,66.4861654 54.5944882,67.7540197 50.8051181,67.7540197 C47.015748,67.7401024 43.5295276,66.4725236 40.7047244,64.3780354 M70,50.8052008 C70,40.2223858 61.3877953,31.6101811 50.8051181,31.6101811 C40.2224409,31.6101811 31.6102362,40.2223858 31.6102362,50.8052008 C31.6102362,56.6615 34.242126,61.8977205 38.3897638,65.4115 L38.3897638,65.4803976 L38.4724409,65.4803976 C41.8070866,68.2912835 46.1200787,69.9999449 50.8188976,69.9999449 C55.5177165,69.9999449 59.8169291,68.2912835 63.1653543,65.4803976 L63.2480315,65.4803976 L63.2480315,65.4115 C67.3681102,61.8977205 70,56.6615 70,50.8052008" id="Fill-4" fill="#3386BC"></path> <path d="M59.8444606,29.3503937 L62.1043031,29.3503937 C62.1043031,17.5275591 52.4863307,7.89566929 40.6495787,7.89566929 L40.6495787,10.1555118 C51.2322559,10.1555118 59.8444606,18.7677165 59.8444606,29.3503937" id="Fill-6" fill="#3386BC"></path> <path d="M10.1555394,40.6496063 L7.90947638,40.6496063 C7.90947638,52.4724409 17.5275866,62.1043307 29.3642008,62.1043307 L29.3642008,59.8444882 C18.7677441,59.8444882 10.1555394,51.2322835 10.1555394,40.6496063" id="Fill-8" fill="#3386BC"></path> </g> </g> </svg> 