<?xml version="1.0" encoding="UTF-8"?> <svg xmlns="http://www.w3.org/2000/svg" xmlns:xlink="http://www.w3.org/1999/xlink" width="72px" height="72px" viewBox="0 0 72 72"> <!-- Generator: Sketch 51.2 (57519) - http://www.bohemiancoding.com/sketch --> <title>Artboard</title> <desc>Created with Sketch.</desc> <defs></defs> <g id="Artboard" stroke="none" stroke-width="1" fill="none" fill-rule="evenodd" fill-opacity="0"> <g id="rocket" transform="translate(5.000000, 4.000000)" fill="#4A4A4A" fill-rule="nonzero" stroke="#3386BC" stroke-width="2"> <path d="M6.03243243,34.8631579 C10.7846486,27.9865263 13.572973,23.5570526 15.618973,20.2829474 C7.78686486,20.9785263 0.278162162,30.7755789 0.278162162,30.7755789 L5.44762162,35.9730526 C5.59894066,35.5814833 5.7952049,35.2089992 6.03243243,34.8631579 Z M26.2192973,56.8505263 L31.3854054,62.0446316 C31.3854054,62.0446316 41.1311351,54.4976842 41.8248649,46.6256842 C38.569027,48.6736842 34.162,51.4812632 27.3135135,56.2526316 C26.9731193,56.4939722 26.6059042,56.6946235 26.2192973,56.8505263 Z M18.3620541,54.1642105 C17.4756216,54.5246316 16.6042703,54.9069474 15.6943784,55.2134737 C13.2652035,56.0152435 10.7672269,56.5886504 8.23259459,56.9263158 C7.17021622,57.0778947 6.09778378,57.2042105 5.02702703,57.2850526 C5.03708108,57.152 5.04713514,57.0189474 5.05886486,56.8858947 C5.26714885,54.2873462 5.68407405,51.709971 6.30556757,49.1789474 C6.61221622,47.9595789 7.00097297,46.7738947 7.41989189,45.5882105 C7.67962162,44.8522105 8.00637838,44.1465263 8.33313514,43.4425263 L7.76508108,42.8715789 C6.50382431,43.7362528 5.39065006,44.8010602 4.46902703,46.0244211 C3.09940601,47.8426179 2.03835413,49.8759414 1.32881081,52.0421053 C0.54056003,54.3692148 0.0978926333,56.8003961 0.0150810811,59.2572632 C-0.0103815359,59.6023641 -0.00421140528,59.9490877 0.0335135135,60.2930526 C0.173554874,61.1894461 0.803291,61.9304849 1.66227027,62.2096842 C2.00943151,62.302943 2.36938185,62.3387801 2.728,62.3157895 C4.95367583,62.2786995 7.16335424,61.9300844 9.2932973,61.28 C13.3139094,60.245489 16.861581,57.8600081 19.3473514,54.5195789 L18.7943784,53.9637895 C18.6552973,54.0328421 18.5095135,54.1002105 18.3620541,54.1642105 Z M61.374973,0.631578947 C60.9729033,0.227113226 60.4273439,-9.87952749e-05 59.8584865,9.34924725e-17 L59.8216216,9.34924725e-17 C52.9195135,0.136421053 35.892973,1.43326316 26.8493514,10.5246316 C23.5635231,13.7731116 20.7482249,17.4696126 18.4860541,21.5056842 C16.3797297,24.8943158 13.4975676,29.5376842 8.22756757,37.1688421 C7.63818277,38.0228322 7.73894274,39.1779129 8.46718919,39.9157895 L22.2864865,53.8105263 C23.0200408,54.548398 24.174194,54.651985 25.0262162,54.0564211 C32.6136757,48.7578947 37.2301622,45.8610526 40.5999459,43.7456842 C44.6155839,41.4713427 48.2933406,38.6411475 51.5253514,35.3381053 C60.5890811,26.2315789 61.870973,9.12673684 62,2.18947368 C62.0099924,1.60656063 61.7844816,1.04446946 61.374973,0.631578947 Z M45.3655676,26.8513684 C42.5823525,29.648434 38.0701589,29.6482582 35.2871597,26.8509758 C32.5041606,24.0536933 32.5041606,19.5185172 35.2871597,16.7212348 C38.0701589,13.9239523 42.5823525,13.9237765 45.3655676,16.7208421 C46.7022527,18.0641792 47.4532076,19.8862292 47.4532076,21.7861053 C47.4532076,23.6859813 46.7022527,25.5080313 45.3655676,26.8513684 Z" id="Shape"></path> </g> </g> </svg> 