<?xml version="1.0" encoding="UTF-8"?> <svg xmlns="http://www.w3.org/2000/svg" xmlns:xlink="http://www.w3.org/1999/xlink" width="72px" height="72px" viewBox="0 0 72 72"> <!-- Generator: Sketch 51.2 (57519) - http://www.bohemiancoding.com/sketch --> <title>Artboard</title> <desc>Created with Sketch.</desc> <defs></defs> <g id="Artboard" stroke="none" stroke-width="1" fill="none" fill-rule="evenodd" fill-opacity="0"> <g id="Group-3" transform="translate(1.000000, 1.000000)" fill="#000000" stroke="#3386BC" stroke-width="2"> <path d="M60.2981144,57.8644248 C59.6968235,58.4660588 58.7211699,58.4660588 58.1197647,57.8644248 L47.2894379,47.0336405 C46.6878039,46.4322353 46.6878039,45.4566961 47.2892092,44.8555196 C47.8906144,44.2538856 48.8661536,44.2538856 49.4675588,44.8555196 L60.2981144,55.6864183 C60.8994052,56.2879379 60.8994052,57.263134 60.2981144,57.8644248 Z M55.3971993,62.7654542 C54.795451,63.3674314 53.8201405,63.3674314 53.2188497,62.7654542 L42.387951,51.9346699 C41.786317,51.3333791 41.786317,50.358183 42.387951,49.7563203 C42.989585,49.154915 43.9646667,49.154915 44.5663007,49.7568922 L55.3968562,60.5873333 C55.9984902,61.1886242 55.998719,62.1641634 55.3971993,62.7654542 Z M49.4214641,38.8499314 C48.9017255,38.3300784 48.2104183,38.043902 47.4754183,38.043902 C46.7401895,38.043902 46.0489967,38.3300784 45.5291438,38.8499314 L43.1390784,41.2398824 L39.6340458,37.7347353 L50.3752712,26.9939673 C52.1078856,27.7390327 53.9890784,28.1330686 55.9310065,28.1330686 L55.9313497,28.1330686 C59.6968235,28.1330686 63.2351405,26.6642124 65.8935392,23.9976928 C69.5222157,20.3576928 70.8761209,15.0294575 69.4269379,10.0922843 C69.3426405,9.80507843 69.1126242,9.58364052 68.8227876,9.50975163 C68.5328366,9.43563399 68.2252712,9.52061765 68.0137843,9.73267647 L59.154781,18.6186732 C58.6230327,18.4030686 57.2836536,17.6679542 54.8048301,15.196451 C52.3258922,12.7250621 51.5860882,11.3877418 51.3685392,10.8565654 L60.2269706,1.97011111 C60.4384575,1.75805229 60.5220686,1.45037255 60.4476078,1.16042157 C60.3726895,0.870470588 60.1506797,0.641369281 59.8630163,0.557872549 C58.5859739,0.187627451 57.262951,4.5751634e-05 55.9300915,4.5751634e-05 C52.1643889,4.5751634e-05 48.6268725,1.46844444 45.9689314,4.13484967 C41.797183,8.31963725 40.8151242,14.4939346 43.0101732,19.6196046 L32.2642582,30.3652908 L21.2656797,19.3667124 C21.2560719,19.3479542 21.2494379,19.3286242 21.2388007,19.3100948 L16.2113824,10.691402 C16.1244542,10.5424804 16.006415,10.4148333 15.8649281,10.3164673 L7.38417647,4.43223529 C6.9153366,4.10671242 6.28110458,4.16401634 5.87780392,4.56731699 L2.09951961,8.34560131 C1.6959902,8.74890196 1.63925817,9.38336275 1.96443791,9.85197386 L7.84878431,18.3327255 C7.94703595,18.4742124 8.07468301,18.5924804 8.22360458,18.6791797 L16.8426405,23.706598 C16.8616275,23.7176928 16.8816438,23.7258137 16.9010882,23.7356503 L27.8972647,34.7318268 L19.6225098,43.0065817 C17.8898954,42.2615163 16.0089314,41.8674804 14.0668889,41.8674804 C10.3009575,41.8674804 6.76286928,43.3359935 4.10458497,46.0027418 C0.475794118,49.6427418 -0.877996732,54.9712059 0.571643791,59.9076928 C0.655941176,60.1948987 0.8855,60.416451 1.17567974,60.4902255 C1.46563072,60.5638856 1.77331046,60.4793595 1.98468301,60.2673007 L10.8436863,51.3810752 C11.3754346,51.5969085 12.714585,52.3325948 15.1932941,54.8032974 C17.6725752,57.2750294 18.4124935,58.6120065 18.6298137,59.143183 L9.77126797,68.0296373 C9.55989542,68.2418105 9.47616993,68.5494902 9.5507451,68.8393268 C9.62554902,69.1292778 9.84755882,69.3583791 10.1352222,69.4416471 C11.4119216,69.8121209 12.7351732,70.0000458 14.0681471,70.0000458 C17.8333922,70.0000458 21.3711373,68.5314183 24.0290784,65.8647843 C26.6817582,63.2037549 28.1395196,59.669098 28.1338007,55.9116307 C28.1309412,53.9753072 27.7364477,52.1004052 26.9936699,50.3740817 L35.2669379,42.1010425 L38.7721993,45.6061895 L36.3823627,47.9959118 C35.8625098,48.5159935 35.5761046,49.2073007 35.5761046,49.9423007 C35.5761046,50.6777582 35.862281,51.3687222 36.382134,51.8885752 L53.2646013,68.7706993 C53.7843399,69.2904379 54.4753039,69.5767288 55.2105327,69.5767288 C55.9456471,69.5767288 56.6368399,69.2904379 57.1569216,68.7706993 L66.302902,59.6244902 C66.8229837,59.1046373 67.1095033,58.4134444 67.1095033,57.6779869 C67.1095033,56.9428725 66.8232124,56.2515654 66.3034739,55.7318268 L49.4214641,38.8499314 Z" id="Fill-1"></path> </g> </g> </svg> 