<?xml version="1.0" encoding="UTF-8"?> <svg xmlns="http://www.w3.org/2000/svg" xmlns:xlink="http://www.w3.org/1999/xlink" width="64px" height="64px" viewBox="0 0 64 64"> <!-- Generator: Sketch 51.2 (57519) - http://www.bohemiancoding.com/sketch --> <title>Artboard</title> <desc>Created with Sketch.</desc> <defs></defs> <g id="Artboard" stroke="none" stroke-width="1" fill="none" fill-rule="evenodd"> <g id="Group-6" transform="translate(8.000000, 4.000000)" fill="#3C80BC" stroke="#3C80BC" stroke-width="1.25"> <path d="M24,25.8793478 C24.896,25.8793478 25.6,25.1858696 25.6,24.3032609 L25.6,6.02065217 L32.448,12.7663043 C32.768,13.0815217 33.152,13.2076087 33.6,13.2076087 C34.048,13.2076087 34.432,13.0815217 34.752,12.7663043 C35.392,12.1358696 35.392,11.1271739 34.752,10.5597826 L25.152,1.10326087 C24.512,0.472826087 23.488,0.472826087 22.912,1.10326087 L13.312,10.5597826 C12.672,11.1902174 12.672,12.198913 13.312,12.7663043 C13.952,13.3967391 14.976,13.3967391 15.552,12.7663043 L22.4,6.02065217 L22.4,24.3032609 C22.4,25.1858696 23.104,25.8793478 24,25.8793478" id="Fill-1"></path> <path d="M1.6,57.401087 L46.4,57.401087 C47.296,57.401087 48,56.7076087 48,55.825 L48,24.3032609 C48,23.4206522 47.296,22.7271739 46.4,22.7271739 L33.6,22.7271739 C32.704,22.7271739 32,23.4206522 32,24.3032609 C32,25.1858696 32.704,25.8793478 33.6,25.8793478 L44.8,25.8793478 L44.8,54.248913 L3.2,54.248913 L3.2,25.8793478 L14.4,25.8793478 C15.296,25.8793478 16,25.1858696 16,24.3032609 C16,23.4206522 15.296,22.7271739 14.4,22.7271739 L1.6,22.7271739 C0.704,22.7271739 0,23.4206522 0,24.3032609 L0,55.825 C0,56.7076087 0.704,57.401087 1.6,57.401087" id="Fill-4"></path> </g> </g> </svg> 