<?xml version="1.0" encoding="UTF-8"?> <svg xmlns="http://www.w3.org/2000/svg" xmlns:xlink="http://www.w3.org/1999/xlink" width="72px" height="72px" viewBox="0 0 72 72"> <!-- Generator: Sketch 51.2 (57519) - http://www.bohemiancoding.com/sketch --> <title>Artboard</title> <desc>Created with Sketch.</desc> <defs></defs> <g id="Artboard" stroke="none" stroke-width="1" fill="none" fill-rule="evenodd" fill-opacity="0"> <g id="visual" transform="translate(10.000000, 3.000000)" fill="#FFFFFF" fill-rule="nonzero" stroke="#3386BC" stroke-width="1.91304348"> <path d="M34.5205643,29.7161092 C36.501464,27.6878721 37.608181,24.982545 37.6085269,22.1677032 C37.5851645,16.7226961 33.5238064,12.1132233 28.055725,11.32567 L29.2983659,9.96812007 L29.2983659,3.17271809 L26.4061192,0 L23.521639,3.17271809 L23.521639,9.96352858 L24.7565134,11.32567 C19.2872711,12.1133968 15.2255403,16.724594 15.2037114,22.1707642 C15.2043808,24.9855441 16.311051,27.6907566 18.2916741,29.7191702 L6.72113398,52.5480476 C3.84424329,52.8578534 1.66170738,55.2461185 1.6496058,58.0976259 C1.64846904,59.1064214 1.92781671,60.0962498 2.45732238,60.9596533 L0,65.8113255 L6.77083961,63.6533262 C6.96542054,63.6726738 7.16086495,63.6823791 7.35643414,63.6824056 C10.495069,63.6883418 13.0464596,61.1901564 13.0601559,58.0976259 C13.061114,56.8863117 12.6583739,55.7081976 11.9138196,54.7443093 L23.1131208,32.6470089 C25.2590773,33.2923257 27.5516078,33.2923257 29.6975643,32.6470089 L45.289601,63.4099773 L52.8122383,65.8113255 L34.5205643,29.7161092 Z M7.35643414,61.0667881 C5.69485108,61.055817 4.3558422,59.7216591 4.36325283,58.0844505 C4.37066347,56.447242 5.7216967,55.1249052 7.38331296,55.1285377 C9.04492924,55.1321704 10.3899939,56.460401 10.3900312,58.0976259 C10.3814763,59.7417144 9.02504024,61.0693391 7.35643414,61.0667881 Z M26.4061192,27.9973623 C23.1430052,27.9754208 20.5136684,25.3550724 20.5284887,22.1398251 C20.5433091,18.9245777 23.1966937,16.3278699 26.4598752,16.3351338 C29.7230567,16.3423978 32.3645063,18.9508922 32.3645823,22.1661727 C32.3500291,25.3962359 29.6843351,28.0049904 26.4061192,27.9973623 Z" id="Visual_TechnicalDesign_Icon"></path> </g> </g> </svg> 